# xmcd
#
# Track frame offsets: 
#        150
#        14513
#        33494
#        56346
#        77992
#        90106
#        114771
#        134439
#        153758
#        168572
#        183442
#        199614
#        209054
#        228218
#        241999
#
# Disc length: 3556 seconds
#
# Revision: 4
# Processed by: cddbd v1.5.2PL0 Copyright (c) Steve Scherf et al.
# Submitted via: ExactAudioCopy v0.99pb5
#
DISCID=b90de20f
DTITLE=Various Artist - Classic Country - TL 626-41 - Acoustic - CD 2
DYEAR=2004
DGENRE=Country
TTITLE0=Jayhawks - Blue
TTITLE1=Nickel Creek - Seven wonders
TTITLE2=Caitlin Cary - Some tears
TTITLE3=Lucinda Williams - Fruits of my labor
TTITLE4=Be Good Tanyas - It's not happening
TTITLE5=Allison Moorer - Yessirree
TTITLE6=Son Volt - Tear stained eye
TTITLE7=Broken Family Band - Devil in the details
TTITLE8=Emmylou Harris - Little bird
TTITLE9=Gillian Welch - No one knows my name
TTITLE10=Shelby Lynne - If I were smart
TTITLE11=Erin McKeown - How to be a lady
TTITLE12=Magic Car - How about you
TTITLE13=Oh Susanna - Down by the quarry
TTITLE14=Gary Allan - What would Willie do
EXTD=
EXTT0=
EXTT1=
EXTT2=
EXTT3=
EXTT4=
EXTT5=
EXTT6=
EXTT7=
EXTT8=
EXTT9=
EXTT10=
EXTT11=
EXTT12=
EXTT13=
EXTT14=
PLAYORDER=
